<svg version="1.1" id="Layer_1" xmlns="http://www.w3.org/2000/svg" xmlns:xlink="http://www.w3.org/1999/xlink" x="0px" y="0px"
	 width="100%" viewBox="0 0 512 512" enable-background="new 0 0 512 512" xml:space="preserve">
<path fill="#000000" opacity="1.000000" stroke="none" 
	d="
M287.000000,513.000000 
	C191.356552,513.000000 96.213104,513.000000 1.034826,513.000000 
	C1.034826,342.398193 1.034826,171.796371 1.034826,1.097280 
	C171.560135,1.097280 342.120331,1.097280 512.840271,1.097280 
	C512.840271,171.666550 512.840271,342.333252 512.840271,513.000000 
	C437.796356,513.000000 362.648163,513.000000 287.000000,513.000000 
M125.500000,120.004372 
	C99.174370,120.004395 72.848717,119.981178 46.523129,120.012657 
	C29.170334,120.033409 15.027032,134.041290 15.018017,151.312729 
	C14.984012,216.460571 14.983221,281.608459 15.018834,346.756317 
	C15.028035,363.588379 29.381880,377.900635 46.172340,377.990967 
	C51.503983,378.019653 56.841923,378.148224 62.165424,377.938171 
	C65.316055,377.813873 67.278694,378.807892 69.127396,381.510773 
	C82.740654,401.413940 101.546730,410.343964 125.583321,406.942963 
	C142.415878,404.561279 155.573257,396.118317 164.867691,381.649994 
	C166.033356,379.835419 169.009109,378.157104 171.153244,378.148407 
	C219.471832,377.951721 267.791565,377.957214 316.110260,378.138519 
	C318.135925,378.146118 320.588867,379.809692 322.087158,381.409485 
	C325.475250,385.026978 327.859131,389.720428 331.593140,392.854218 
	C345.110138,404.198425 360.426208,410.072357 378.499573,407.070343 
	C395.348877,404.271667 408.625305,396.034637 417.908020,381.792572 
	C419.889191,378.752991 421.854004,377.926605 425.113434,377.949280 
	C440.274994,378.054840 455.439697,378.150635 470.599426,377.952881 
	C487.207886,377.736267 501.442993,362.952484 501.115845,347.327271 
	C500.645142,324.843597 500.874023,302.341827 501.042236,279.849579 
	C501.139709,266.816162 494.984192,257.690033 484.023132,251.578384 
	C471.482910,244.586166 459.984985,236.168549 449.792908,226.160461 
	C435.117920,211.750473 423.282562,195.162582 414.296600,176.615768 
	C404.292358,155.967163 388.632660,140.745956 368.215668,130.916809 
	C358.780151,126.374344 348.148499,124.339859 338.133820,120.947807 
	C336.859161,120.516075 335.339752,118.860634 335.127228,117.574829 
	C334.184174,111.869667 333.699554,106.089767 333.005127,100.342209 
	C332.038788,92.344254 326.332397,87.109856 318.248322,87.030258 
	C308.085602,86.930183 297.920105,86.919128 287.757721,87.036072 
	C280.133240,87.123802 274.421082,91.447495 272.671143,98.903152 
	C271.620544,103.379234 271.358521,108.067459 271.035461,112.680893 
	C270.559204,119.481880 270.150787,120.002754 263.460449,120.003105 
	C217.806961,120.005501 172.153488,120.004372 125.500000,120.004372 
z"/>
<path fill="#401034" opacity="1.000000" stroke="none" 
	d="
M126.000000,120.004379 
	C172.153488,120.004372 217.806961,120.005501 263.460449,120.003105 
	C270.150787,120.002754 270.559204,119.481880 271.035461,112.680893 
	C271.358521,108.067459 271.620544,103.379234 272.671143,98.903152 
	C274.421082,91.447495 280.133240,87.123802 287.757721,87.036072 
	C297.920105,86.919128 308.085602,86.930183 318.248322,87.030258 
	C326.332397,87.109856 332.038788,92.344254 333.005127,100.342209 
	C333.699554,106.089767 334.184174,111.869667 335.127228,117.574829 
	C335.339752,118.860634 336.859161,120.516075 338.133820,120.947807 
	C348.148499,124.339859 358.780151,126.374344 368.215668,130.916809 
	C388.632660,140.745956 404.292358,155.967163 414.296600,176.615768 
	C423.282562,195.162582 435.117920,211.750473 449.792908,226.160461 
	C459.984985,236.168549 471.482910,244.586166 484.023132,251.578384 
	C494.984192,257.690033 501.139709,266.816162 501.042236,279.849579 
	C500.874023,302.341827 500.645142,324.843597 501.115845,347.327271 
	C501.442993,362.952484 487.207886,377.736267 470.599426,377.952881 
	C455.439697,378.150635 440.274994,378.054840 425.113434,377.949280 
	C421.854004,377.926605 419.889191,378.752991 417.908020,381.792572 
	C408.625305,396.034637 395.348877,404.271667 378.499573,407.070343 
	C360.426208,410.072357 345.110138,404.198425 331.593140,392.854218 
	C327.859131,389.720428 325.475250,385.026978 322.087158,381.409485 
	C320.588867,379.809692 318.135925,378.146118 316.110260,378.138519 
	C267.791565,377.957214 219.471832,377.951721 171.153244,378.148407 
	C169.009109,378.157104 166.033356,379.835419 164.867691,381.649994 
	C155.573257,396.118317 142.415878,404.561279 125.583321,406.942963 
	C101.546730,410.343964 82.740654,401.413940 69.127396,381.510773 
	C67.278694,378.807892 65.316055,377.813873 62.165424,377.938171 
	C56.841923,378.148224 51.503983,378.019653 46.172340,377.990967 
	C29.381880,377.900635 15.028035,363.588379 15.018834,346.756317 
	C14.983221,281.608459 14.984012,216.460571 15.018017,151.312729 
	C15.027032,134.041290 29.170334,120.033409 46.523129,120.012657 
	C72.848717,119.981178 99.174370,120.004395 126.000000,120.004379 
M315.527557,367.909271 
	C315.638794,367.602783 315.750031,367.296265 315.921112,366.192841 
	C315.281769,362.639893 314.367188,359.111237 314.050659,355.529755 
	C312.675171,339.967468 317.698059,326.360352 327.694550,313.849426 
	C342.895416,297.478668 361.548218,291.642761 383.299713,296.135315 
	C395.251282,298.603790 404.833252,305.414215 413.348999,314.748016 
	C426.090118,330.462616 429.512970,348.127899 424.221558,367.824982 
	C440.022217,367.824982 455.655182,368.274048 471.247345,367.669983 
	C481.969147,367.254639 490.662628,358.170532 490.961731,347.934479 
	C491.292053,336.630310 490.960236,325.306793 491.062714,313.065125 
	C491.077942,302.420013 491.093597,291.774872 491.108276,281.129761 
	C491.122131,271.085480 486.446014,264.108124 476.853241,259.498230 
	C445.834045,241.571732 422.779816,216.172684 406.635559,184.371094 
	C388.178955,148.014511 358.450836,130.134903 317.878052,130.095840 
	C249.925400,130.030426 181.972626,130.075089 114.019897,130.083878 
	C109.026039,130.084518 104.032204,130.169510 98.108635,130.053864 
	C81.477921,130.062439 64.846916,130.012680 48.216599,130.097916 
	C34.701889,130.167191 25.358965,139.453568 25.250784,153.027191 
	C25.126200,168.659149 25.192474,184.292877 25.224924,199.925735 
	C25.266684,220.043793 25.357195,240.161728 25.262838,261.165955 
	C25.324348,278.779480 25.385857,296.393005 25.251740,314.930542 
	C25.241032,325.094574 25.099970,335.260590 25.253740,345.422119 
	C25.432217,357.216248 33.325886,366.414185 44.780521,367.657349 
	C50.669247,368.296417 56.684513,367.769531 62.896156,367.769531 
	C57.428738,347.849182 61.418732,330.096710 74.505974,313.799438 
	C89.547737,297.527832 108.036026,291.742401 129.630844,296.063568 
	C141.790100,298.496674 151.474060,305.386841 160.163910,314.789185 
	C172.868011,330.488525 175.903641,348.235199 171.003052,367.710846 
	C203.912003,367.710846 236.479614,367.710846 269.964233,367.883820 
	C284.969574,367.851257 299.974915,367.818695 315.527557,367.909271 
M416.009674,357.375549 
	C415.841278,351.928131 416.504059,346.299469 415.362518,341.064240 
	C410.042236,316.664520 387.501892,301.496613 362.669495,305.104065 
	C338.579895,308.603607 320.214691,334.051697 324.231537,357.489136 
	C329.216888,386.577148 354.675690,401.837219 379.901428,396.363373 
	C400.150452,391.969452 411.891479,378.456665 416.009674,357.375549 
M81.446335,381.012390 
	C93.593864,394.865387 108.956001,400.047211 126.776039,396.417175 
	C147.443512,392.207123 163.595596,373.727234 163.114090,349.648560 
	C162.617981,324.839722 140.704117,299.715912 108.618752,305.478333 
	C73.608772,311.765961 58.965157,352.470673 81.446335,381.012390 
M297.501526,120.221085 
	C306.560944,120.221085 315.620361,120.221085 325.035065,120.221085 
	C324.318573,113.610016 324.080780,107.769051 322.856903,102.142563 
	C322.440338,100.227684 319.599976,97.532593 317.766296,97.450653 
	C307.659027,96.999001 297.513519,97.056831 287.399567,97.434273 
	C285.662811,97.499092 282.832520,99.727837 282.537170,101.330933 
	C281.439331,107.289619 281.188751,113.404419 280.548645,120.221390 
	C286.322723,120.221390 291.412811,120.221390 297.501526,120.221085 
z"/>
<path fill="#FF243E" opacity="1.000000" stroke="none" 
	d="
M413.144653,314.130676 
	C404.833252,305.414215 395.251282,298.603790 383.299713,296.135315 
	C361.548218,291.642761 342.895416,297.478668 326.925659,313.937378 
	C294.453156,314.071259 262.749542,314.117157 230.578613,314.096375 
	C206.722641,314.072327 183.334030,314.114899 159.945404,314.157471 
	C151.474060,305.386841 141.790100,298.496674 129.630844,296.063568 
	C108.036026,291.742401 89.547737,297.527832 73.746674,313.921631 
	C57.140709,314.031403 41.294037,314.018982 25.447365,314.006531 
	C25.385857,296.393005 25.324348,278.779480 25.780647,260.716064 
	C80.220383,260.281372 134.142303,260.298096 188.064240,260.299438 
	C189.053024,260.299469 190.041809,260.116882 191.486938,260.126648 
	C192.608810,260.262054 193.274323,260.315033 193.939835,260.315063 
	C286.904694,260.319794 379.869568,260.321930 472.834442,260.310089 
	C474.328461,260.309906 475.822479,260.136536 477.316498,260.043976 
	C486.446014,264.108124 491.122131,271.085480 491.108276,281.129761 
	C491.093597,291.774872 491.077942,302.420013 490.527130,313.532654 
	C464.375916,314.043701 438.760284,314.087189 413.144653,314.130676 
z"/>
<path fill="#FEFEFE" opacity="1.000000" stroke="none" 
	d="
M477.084869,259.771118 
	C475.822479,260.136536 474.328461,260.309906 472.834442,260.310089 
	C379.869568,260.321930 286.904694,260.319794 193.939835,260.315063 
	C193.274323,260.315033 192.608810,260.262054 191.345581,259.811890 
	C188.699905,256.385925 186.815582,253.251968 184.561035,250.411926 
	C181.952759,247.126328 179.018646,244.099396 176.158752,240.498444 
	C176.091492,233.625671 176.091492,227.214615 176.091492,220.676346 
	C185.229675,220.676346 193.720108,220.726074 202.209610,220.658844 
	C207.858078,220.614120 209.188660,219.221481 209.215607,213.484726 
	C209.256271,204.825500 209.250046,196.165863 209.218842,187.506577 
	C209.196091,181.194824 208.032379,180.084915 201.534256,180.072327 
	C193.111130,180.056015 184.687912,180.068329 176.007523,180.068329 
	C176.007523,171.172546 176.018494,162.870651 176.004013,154.568771 
	C175.992554,148.002625 174.936935,146.891953 168.600372,146.872559 
	C159.941040,146.846054 151.281479,146.841599 142.622192,146.874817 
	C136.821671,146.897079 135.551483,148.117355 135.501541,153.865692 
	C135.436447,161.358856 135.590988,168.856125 135.372528,176.343506 
	C135.337677,177.537720 133.845734,178.689423 132.957367,179.528397 
	C125.321785,168.680161 117.654602,158.235382 110.231895,147.619675 
	C106.282219,141.970993 102.755814,136.026337 99.038353,130.215271 
	C104.032204,130.169510 109.026039,130.084518 114.019897,130.083878 
	C181.972626,130.075089 249.925400,130.030426 317.878052,130.095840 
	C358.450836,130.134903 388.178955,148.014511 406.635559,184.371094 
	C422.779816,216.172684 445.834045,241.571732 477.084869,259.771118 
M378.550720,164.948822 
	C368.709839,155.679977 357.243011,149.319046 343.772675,147.854263 
	C333.881622,146.778717 323.833923,146.932724 313.855865,146.928787 
	C304.176392,146.924973 296.830627,153.647049 296.671234,163.394180 
	C296.322571,184.715698 296.322784,206.051010 296.680389,227.372314 
	C296.842072,237.011246 304.308716,243.830002 313.918335,243.890366 
	C335.746399,244.027512 357.576843,244.046814 379.404510,243.877777 
	C389.467377,243.799866 397.874908,236.386612 398.727661,226.420135 
	C400.694550,203.431183 396.423401,182.274963 378.550720,164.948822 
z"/>
<path fill="#DFDFDF" opacity="1.000000" stroke="none" 
	d="
M98.573494,130.134583 
	C102.755814,136.026337 106.282219,141.970993 110.231895,147.619675 
	C117.654602,158.235382 125.321785,168.680161 132.494324,179.617706 
	C124.614975,180.048950 117.128532,180.041611 109.642250,180.073349 
	C103.530701,180.099258 102.141319,181.519928 102.121300,187.795135 
	C102.095291,195.947006 102.104774,204.099014 102.118263,212.250946 
	C102.130104,219.404602 103.289330,220.551544 110.602524,220.573624 
	C118.705849,220.598099 126.809296,220.579208 135.478424,220.579208 
	C135.478424,229.563797 135.438705,237.996735 135.491821,246.429092 
	C135.529709,252.445343 136.912247,253.834946 142.791733,253.874573 
	C149.279724,253.918320 155.768509,253.846100 162.256454,253.893036 
	C177.309311,254.001923 175.747513,254.086395 176.225998,240.960159 
	C179.018646,244.099396 181.952759,247.126328 184.561035,250.411926 
	C186.815582,253.251968 188.699905,256.385925 190.889236,259.704712 
	C190.041809,260.116882 189.053024,260.299469 188.064240,260.299438 
	C134.142303,260.298096 80.220383,260.281372 25.862579,260.272949 
	C25.357195,240.161728 25.266684,220.043793 25.224924,199.925735 
	C25.192474,184.292877 25.126200,168.659149 25.250784,153.027191 
	C25.358965,139.453568 34.701889,130.167191 48.216599,130.097916 
	C64.846916,130.012680 81.477921,130.062439 98.573494,130.134583 
z"/>
<path fill="#DFDFDF" opacity="1.000000" stroke="none" 
	d="
M160.054657,314.473328 
	C183.334030,314.114899 206.722641,314.072327 230.721634,314.394043 
	C236.439850,321.893890 241.563034,329.018585 246.651932,336.167664 
	C254.129868,346.672943 261.583313,357.195587 269.047211,367.710846 
	C236.479614,367.710846 203.912003,367.710846 171.003052,367.710846 
	C175.903641,348.235199 172.868011,330.488525 160.054657,314.473328 
z"/>
<path fill="#514B67" opacity="1.000000" stroke="none" 
	d="
M415.997803,357.805267 
	C411.891479,378.456665 400.150452,391.969452 379.901428,396.363373 
	C354.675690,401.837219 329.216888,386.577148 324.231537,357.489136 
	C320.214691,334.051697 338.579895,308.603607 362.669495,305.104065 
	C387.501892,301.496613 410.042236,316.664520 415.362518,341.064240 
	C416.504059,346.299469 415.841278,351.928131 415.997803,357.805267 
M350.995453,327.438446 
	C350.165344,328.257019 349.326569,329.066986 348.506500,329.895477 
	C339.028564,339.470795 336.684509,354.743958 343.606018,365.777496 
	C352.551819,380.037994 363.555389,383.446014 378.166382,380.246399 
	C390.695221,377.502747 399.100983,366.722046 400.820679,353.377747 
	C402.140381,343.137085 395.464935,330.503693 385.757507,324.870422 
	C374.712036,318.460754 361.674011,319.257538 350.995453,327.438446 
z"/>
<path fill="#514B67" opacity="1.000000" stroke="none" 
	d="
M81.199600,380.755005 
	C58.965157,352.470673 73.608772,311.765961 108.618752,305.478333 
	C140.704117,299.715912 162.617981,324.839722 163.114090,349.648560 
	C163.595596,373.727234 147.443512,392.207123 126.776039,396.417175 
	C108.956001,400.047211 93.593864,394.865387 81.199600,380.755005 
M138.064697,329.427826 
	C126.061958,317.813568 106.610954,317.480377 95.395882,329.364960 
	C83.154930,342.336670 83.050133,359.354919 95.263176,372.505920 
	C106.262436,384.349884 127.015343,384.153015 138.587448,372.707764 
	C150.085571,361.335693 150.078232,341.882324 138.064697,329.427826 
z"/>
<path fill="#FFFFFF" opacity="1.000000" stroke="none" 
	d="
M269.505737,367.797333 
	C261.583313,357.195587 254.129868,346.672943 246.651932,336.167664 
	C241.563034,329.018585 236.439850,321.893890 231.188980,314.460663 
	C262.749542,314.117157 294.453156,314.071259 326.628693,314.095459 
	C317.698059,326.360352 312.675171,339.967468 314.050659,355.529755 
	C314.367188,359.111237 315.281769,362.639893 315.714233,366.689087 
	C315.271606,367.332886 315.095886,367.533142 314.980255,367.786133 
	C299.974915,367.818695 284.969574,367.851257 269.505737,367.797333 
z"/>
<path fill="#FEFEFE" opacity="1.000000" stroke="none" 
	d="
M413.246826,314.439362 
	C438.760284,314.087189 464.375916,314.043701 490.454163,313.995972 
	C490.960236,325.306793 491.292053,336.630310 490.961731,347.934479 
	C490.662628,358.170532 481.969147,367.254639 471.247345,367.669983 
	C455.655182,368.274048 440.022217,367.824982 424.221558,367.824982 
	C429.512970,348.127899 426.090118,330.462616 413.246826,314.439362 
z"/>
<path fill="#DEDEDE" opacity="1.000000" stroke="none" 
	d="
M25.349552,314.468536 
	C41.294037,314.018982 57.140709,314.031403 73.448990,314.091217 
	C61.418732,330.096710 57.428738,347.849182 62.896156,367.769531 
	C56.684513,367.769531 50.669247,368.296417 44.780521,367.657349 
	C33.325886,366.414185 25.432217,357.216248 25.253740,345.422119 
	C25.099970,335.260590 25.241032,325.094574 25.349552,314.468536 
z"/>
<path fill="#FC223D" opacity="1.000000" stroke="none" 
	d="
M297.002197,120.221237 
	C291.412811,120.221390 286.322723,120.221390 280.548645,120.221390 
	C281.188751,113.404419 281.439331,107.289619 282.537170,101.330933 
	C282.832520,99.727837 285.662811,97.499092 287.399567,97.434273 
	C297.513519,97.056831 307.659027,96.999001 317.766296,97.450653 
	C319.599976,97.532593 322.440338,100.227684 322.856903,102.142563 
	C324.080780,107.769051 324.318573,113.610016 325.035065,120.221085 
	C315.620361,120.221085 306.560944,120.221085 297.002197,120.221237 
z"/>
<path fill="#DFDFDF" opacity="1.000000" stroke="none" 
	d="
M315.253906,367.847717 
	C315.095886,367.533142 315.271606,367.332886 315.684326,367.087585 
	C315.750031,367.296265 315.638794,367.602783 315.253906,367.847717 
z"/>
<path fill="#441336" opacity="1.000000" stroke="none" 
	d="
M176.158752,240.498444 
	C175.747513,254.086395 177.309311,254.001923 162.256454,253.893036 
	C155.768509,253.846100 149.279724,253.918320 142.791733,253.874573 
	C136.912247,253.834946 135.529709,252.445343 135.491821,246.429092 
	C135.438705,237.996735 135.478424,229.563797 135.478424,220.579208 
	C126.809296,220.579208 118.705849,220.598099 110.602524,220.573624 
	C103.289330,220.551544 102.130104,219.404602 102.118263,212.250946 
	C102.104774,204.099014 102.095291,195.947006 102.121300,187.795135 
	C102.141319,181.519928 103.530701,180.099258 109.642250,180.073349 
	C117.128532,180.041611 124.614975,180.048950 132.564377,179.950073 
	C133.845734,178.689423 135.337677,177.537720 135.372528,176.343506 
	C135.590988,168.856125 135.436447,161.358856 135.501541,153.865692 
	C135.551483,148.117355 136.821671,146.897079 142.622192,146.874817 
	C151.281479,146.841599 159.941040,146.846054 168.600372,146.872559 
	C174.936935,146.891953 175.992554,148.002625 176.004013,154.568771 
	C176.018494,162.870651 176.007523,171.172546 176.007523,180.068329 
	C184.687912,180.068329 193.111130,180.056015 201.534256,180.072327 
	C208.032379,180.084915 209.196091,181.194824 209.218842,187.506577 
	C209.250046,196.165863 209.256271,204.825500 209.215607,213.484726 
	C209.188660,219.221481 207.858078,220.614120 202.209610,220.658844 
	C193.720108,220.726074 185.229675,220.676346 176.091492,220.676346 
	C176.091492,227.214615 176.091492,233.625671 176.158752,240.498444 
M175.692749,189.935516 
	C166.810471,189.914505 166.106674,189.201416 166.103775,180.196945 
	C166.101334,172.585144 166.103271,164.973343 166.103271,157.064117 
	C158.935013,157.064117 152.385406,157.064117 145.195694,157.064117 
	C145.195694,163.492889 145.186829,169.608597 145.197449,175.724274 
	C145.222626,190.222198 146.539230,190.116882 131.225662,189.947067 
	C124.961861,189.877609 118.696648,189.935593 112.317711,189.935593 
	C112.317711,197.202759 112.317711,203.769638 112.317711,210.881821 
	C120.901802,210.881821 129.185394,210.865097 137.468872,210.887009 
	C144.325546,210.905151 145.170013,211.763916 145.189270,218.746170 
	C145.212097,227.018616 145.194641,235.291168 145.194641,243.744904 
	C152.442444,243.744904 159.004333,243.744904 166.105499,243.744904 
	C166.105499,234.985382 166.065765,226.534363 166.119400,218.083969 
	C166.155441,212.404083 167.599564,210.935806 173.151581,210.895493 
	C180.644943,210.841064 188.141769,210.979614 195.629959,210.774460 
	C196.871735,210.740448 199.096970,209.426468 199.136688,208.618851 
	C199.434998,202.552322 199.299210,196.464417 199.299210,189.935501 
	C191.240646,189.935501 183.944702,189.935501 175.692749,189.935516 
z"/>
<path fill="#431639" opacity="1.000000" stroke="none" 
	d="
M378.809326,165.189423 
	C396.423401,182.274963 400.694550,203.431183 398.727661,226.420135 
	C397.874908,236.386612 389.467377,243.799866 379.404510,243.877777 
	C357.576843,244.046814 335.746399,244.027512 313.918335,243.890366 
	C304.308716,243.830002 296.842072,237.011246 296.680389,227.372314 
	C296.322784,206.051010 296.322571,184.715698 296.671234,163.394180 
	C296.830627,153.647049 304.176392,146.924973 313.855865,146.928787 
	C323.833923,146.932724 333.881622,146.778717 343.772675,147.854263 
	C357.243011,149.319046 368.709839,155.679977 378.809326,165.189423 
M309.730988,158.147400 
	C308.569305,160.408737 306.428711,162.657318 306.399017,164.933441 
	C306.134155,185.228592 306.164520,205.529083 306.290833,225.826859 
	C306.325317,231.361053 309.229126,234.059967 314.767303,234.077301 
	C336.063995,234.143967 357.361084,234.110367 378.657928,234.073486 
	C379.790680,234.071533 380.922821,233.697357 382.797089,233.324310 
	C387.198029,231.546112 389.104767,228.158722 389.095123,223.543533 
	C389.086426,219.380707 389.180908,215.213852 389.032288,211.055817 
	C388.398529,193.328110 380.877319,179.114777 366.994385,168.173264 
	C350.234406,154.964264 330.668549,156.282028 311.149475,157.375290 
	C310.919525,157.388168 310.713776,157.832535 309.730988,158.147400 
z"/>
<path fill="#401135" opacity="1.000000" stroke="none" 
	d="
M351.263916,327.200256 
	C361.674011,319.257538 374.712036,318.460754 385.757507,324.870422 
	C395.464935,330.503693 402.140381,343.137085 400.820679,353.377747 
	C399.100983,366.722046 390.695221,377.502747 378.166382,380.246399 
	C363.555389,383.446014 352.551819,380.037994 343.606018,365.777496 
	C336.684509,354.743958 339.028564,339.470795 348.506500,329.895477 
	C349.326569,329.066986 350.165344,328.257019 351.263916,327.200256 
M351.076935,359.157013 
	C356.255310,368.902008 364.925079,373.430817 374.343109,371.310455 
	C383.901398,369.158569 390.695953,361.403778 390.934998,351.994995 
	C391.158447,343.201233 387.270172,336.569824 379.489777,332.463379 
	C372.029572,328.525940 363.030334,329.585449 356.659424,335.304169 
	C349.628143,341.615723 347.770233,349.453613 351.076935,359.157013 
z"/>
<path fill="#401135" opacity="1.000000" stroke="none" 
	d="
M138.318008,329.681763 
	C150.078232,341.882324 150.085571,361.335693 138.587448,372.707764 
	C127.015343,384.153015 106.262436,384.349884 95.263176,372.505920 
	C83.050133,359.354919 83.154930,342.336670 95.395882,329.364960 
	C106.610954,317.480377 126.061958,317.813568 138.318008,329.681763 
M112.461288,330.751587 
	C100.482880,334.131104 93.976585,344.442963 96.713348,355.710602 
	C99.359497,366.605103 109.834526,373.549316 120.425301,371.429993 
	C131.786880,369.156433 139.291031,358.904755 137.460663,348.157440 
	C135.414734,336.144409 125.545372,328.966675 112.461288,330.751587 
z"/>
<path fill="#FD223D" opacity="1.000000" stroke="none" 
	d="
M176.170761,189.935516 
	C183.944702,189.935501 191.240646,189.935501 199.299210,189.935501 
	C199.299210,196.464417 199.434998,202.552322 199.136688,208.618851 
	C199.096970,209.426468 196.871735,210.740448 195.629959,210.774460 
	C188.141769,210.979614 180.644943,210.841064 173.151581,210.895493 
	C167.599564,210.935806 166.155441,212.404083 166.119400,218.083969 
	C166.065765,226.534363 166.105499,234.985382 166.105499,243.744904 
	C159.004333,243.744904 152.442444,243.744904 145.194641,243.744904 
	C145.194641,235.291168 145.212097,227.018616 145.189270,218.746170 
	C145.170013,211.763916 144.325546,210.905151 137.468872,210.887009 
	C129.185394,210.865097 120.901802,210.881821 112.317711,210.881821 
	C112.317711,203.769638 112.317711,197.202759 112.317711,189.935593 
	C118.696648,189.935593 124.961861,189.877609 131.225662,189.947067 
	C146.539230,190.116882 145.222626,190.222198 145.197449,175.724274 
	C145.186829,169.608597 145.195694,163.492889 145.195694,157.064117 
	C152.385406,157.064117 158.935013,157.064117 166.103271,157.064117 
	C166.103271,164.973343 166.101334,172.585144 166.103775,180.196945 
	C166.106674,189.201416 166.810471,189.914505 176.170761,189.935516 
z"/>
<path fill="#63E7FD" opacity="1.000000" stroke="none" 
	d="
M382.055237,233.496460 
	C380.922821,233.697357 379.790680,234.071533 378.657928,234.073486 
	C357.361084,234.110367 336.063995,234.143967 314.767303,234.077301 
	C309.229126,234.059967 306.325317,231.361053 306.290833,225.826859 
	C306.164520,205.529083 306.134155,185.228592 306.399017,164.933441 
	C306.428711,162.657318 308.569305,160.408737 310.282776,158.482697 
	C315.143799,163.429886 319.407745,168.085083 323.770020,172.646255 
	C343.183044,192.944351 362.624207,213.215546 382.055237,233.496460 
z"/>
<path fill="#01B7EF" opacity="1.000000" stroke="none" 
	d="
M382.426147,233.410385 
	C362.624207,213.215546 343.183044,192.944351 323.770020,172.646255 
	C319.407745,168.085083 315.143799,163.429886 310.665649,158.446747 
	C310.713776,157.832535 310.919525,157.388168 311.149475,157.375290 
	C330.668549,156.282028 350.234406,154.964264 366.994385,168.173264 
	C380.877319,179.114777 388.398529,193.328110 389.032288,211.055817 
	C389.180908,215.213852 389.086426,219.380707 389.095123,223.543533 
	C389.104767,228.158722 387.198029,231.546112 382.426147,233.410385 
z"/>
<path fill="#8A9BA3" opacity="1.000000" stroke="none" 
	d="
M350.949341,358.789429 
	C347.770233,349.453613 349.628143,341.615723 356.659424,335.304169 
	C363.030334,329.585449 372.029572,328.525940 379.489777,332.463379 
	C387.270172,336.569824 391.158447,343.201233 390.934998,351.994995 
	C390.695953,361.403778 383.901398,369.158569 374.343109,371.310455 
	C364.925079,373.430817 356.255310,368.902008 350.949341,358.789429 
z"/>
<path fill="#8A9BA3" opacity="1.000000" stroke="none" 
	d="
M112.858032,330.652344 
	C125.545372,328.966675 135.414734,336.144409 137.460663,348.157440 
	C139.291031,358.904755 131.786880,369.156433 120.425301,371.429993 
	C109.834526,373.549316 99.359497,366.605103 96.713348,355.710602 
	C93.976585,344.442963 100.482880,334.131104 112.858032,330.652344 
z"/>
</svg>