<svg version="1.1" id="Layer_1" xmlns="http://www.w3.org/2000/svg" xmlns:xlink="http://www.w3.org/1999/xlink" x="0px" y="0px"
	 width="100%" viewBox="0 0 512 512" enable-background="new 0 0 512 512" xml:space="preserve">
<path fill="#FFFFFF" opacity="1.000000" stroke="none" 
	d="
M309.000000,513.000000 
	C206.375046,513.000000 103.750084,513.000000 1.062565,513.000000 
	C1.062565,342.444397 1.062565,171.888763 1.062565,1.000000 
	C83.688385,1.000000 166.377213,1.000000 249.405518,1.347715 
	C238.893814,4.782075 232.593063,12.019485 231.072449,23.076797 
	C230.152985,29.762699 230.018616,36.556568 229.474960,44.084778 
	C228.849884,41.880466 228.481201,40.358376 227.987656,38.877911 
	C225.747314,32.157616 224.345779,24.972773 221.007172,18.846195 
	C215.801376,9.293180 206.848389,5.629825 195.912582,5.920097 
	C180.037552,6.341474 168.054962,22.788992 171.661636,37.144516 
	C174.609955,48.879654 178.379135,60.407528 181.404114,72.125458 
	C181.897736,74.037682 180.993195,76.881927 179.747620,78.564598 
	C176.058105,83.548874 171.874771,88.167603 167.427246,92.967117 
	C157.660965,93.065094 148.351990,93.125229 138.576721,93.112877 
	C128.184341,93.360321 118.258102,93.951965 108.332184,93.946785 
	C83.349861,93.933739 65.665428,118.446434 72.696358,142.350037 
	C77.435890,158.463409 92.915001,171.545868 113.474800,168.875885 
	C115.907219,168.972855 117.915131,168.999954 119.849937,169.367035 
	C115.503624,177.100433 111.230408,184.493866 106.637695,192.061905 
	C96.933479,211.509933 91.545647,232.033661 90.303352,253.241531 
	C89.438744,268.001678 90.261948,283.080597 92.324722,297.736511 
	C94.886765,315.939789 101.260803,333.292053 109.018242,350.013367 
	C121.969330,377.929840 139.122833,403.133240 159.625351,425.955536 
	C173.664734,441.583405 189.072922,455.962708 206.054047,468.369324 
	C227.022614,483.689301 249.270386,496.995636 274.341980,504.542542 
	C285.016235,507.755646 296.149078,509.445312 307.380554,511.900146 
	C308.125061,512.315308 308.562531,512.657654 309.000000,513.000000 
z"/>
<path fill="#FFFFFF" opacity="1.000000" stroke="none" 
	d="
M264.000000,1.000000 
	C346.961212,1.000000 429.922394,1.000000 512.941772,1.000000 
	C512.941772,171.548065 512.941772,342.096130 512.941772,513.000000 
	C455.979065,513.000000 398.957367,513.000000 341.649536,512.620117 
	C355.718689,510.887787 369.533020,507.459351 382.941589,502.089813 
	C408.853699,491.713165 426.816467,473.755127 435.984772,447.282837 
	C439.635529,436.741760 441.979523,425.907532 442.001434,414.684631 
	C442.026550,401.825073 442.589294,388.923859 441.746460,376.117889 
	C440.987183,364.581116 438.736847,353.134369 436.973083,341.674225 
	C435.237549,330.397125 433.117065,319.177795 431.477753,307.887787 
	C429.785889,296.235596 428.092194,284.560120 427.119812,272.835083 
	C426.444763,264.695496 427.234741,256.445648 426.929230,248.261505 
	C426.492523,236.563599 426.779968,224.671738 424.662628,213.251221 
	C422.616302,202.213852 419.013733,191.127625 414.058960,181.065292 
	C409.446930,171.699051 402.153015,163.653397 396.414429,154.989487 
	C414.031982,150.024368 426.399353,133.193130 423.886353,114.626251 
	C423.560638,100.223892 411.287445,85.059280 397.121094,82.093651 
	C381.149017,78.750000 365.582245,82.669594 350.023865,85.599915 
	C345.329926,80.657059 340.515350,76.199638 336.095795,71.379997 
	C334.952301,70.133003 334.273438,67.544678 334.704437,65.924561 
	C336.780426,58.121250 339.386902,50.461159 341.658356,42.707260 
	C344.865112,31.760921 343.819214,21.007689 335.367615,13.202353 
	C320.358154,-0.659432 295.567719,5.033818 289.964966,26.846159 
	C288.439056,32.786892 286.463837,38.612209 284.661255,44.601990 
	C283.975708,35.562988 284.485718,26.561518 282.336761,18.247314 
	C280.055969,9.423309 272.704010,4.020370 264.000000,1.000000 
z"/>
<path fill="#9B3E2C" opacity="1.000000" stroke="none" 
	d="
M263.535339,1.000000 
	C272.704010,4.020370 280.055969,9.423309 282.336761,18.247314 
	C284.485718,26.561518 283.975708,35.562988 284.661255,44.601990 
	C286.463837,38.612209 288.439056,32.786892 289.964966,26.846159 
	C295.567719,5.033818 320.358154,-0.659432 335.367615,13.202353 
	C343.819214,21.007689 344.865112,31.760921 341.658356,42.707260 
	C339.386902,50.461159 336.780426,58.121250 334.704437,65.924561 
	C334.273438,67.544678 334.952301,70.133003 336.095795,71.379997 
	C340.515350,76.199638 345.329926,80.657059 349.664978,85.741425 
	C333.209656,91.460716 317.086700,96.688011 300.809540,101.617828 
	C283.294495,89.650139 264.017181,86.644196 243.788086,89.696312 
	C224.537933,92.600739 210.775696,104.385788 199.734436,119.584549 
	C185.052109,139.795364 176.226410,162.676895 171.155487,186.918228 
	C168.052139,201.753738 166.365631,216.885605 163.680420,231.787811 
	C152.560181,229.772980 144.197540,223.896774 137.064713,215.509918 
	C132.679504,207.835861 130.056519,199.975006 131.085663,191.438705 
	C131.993790,183.906158 133.635834,176.462067 135.024506,168.599579 
	C141.938568,141.343613 152.326828,116.010788 167.884537,92.929276 
	C171.874771,88.167603 176.058105,83.548874 179.747620,78.564598 
	C180.993195,76.881927 181.897736,74.037682 181.404114,72.125458 
	C178.379135,60.407528 174.609955,48.879654 171.661636,37.144516 
	C168.054962,22.788992 180.037552,6.341474 195.912582,5.920097 
	C206.848389,5.629825 215.801376,9.293180 221.007172,18.846195 
	C224.345779,24.972773 225.747314,32.157616 227.987656,38.877911 
	C228.481201,40.358376 228.849884,41.880466 229.474960,44.084778 
	C230.018616,36.556568 230.152985,29.762699 231.072449,23.076797 
	C232.593063,12.019485 238.893814,4.782075 249.872498,1.347715 
	C254.356903,1.000000 258.713806,1.000000 263.535339,1.000000 
z"/>
<path fill="#CE3043" opacity="1.000000" stroke="none" 
	d="
M396.039764,155.026382 
	C402.153015,163.653397 409.446930,171.699051 414.058960,181.065292 
	C419.013733,191.127625 422.616302,202.213852 424.662628,213.251221 
	C426.779968,224.671738 426.492523,236.563599 426.929230,248.261505 
	C427.234741,256.445648 426.444763,264.695496 427.119812,272.835083 
	C428.092194,284.560120 429.785889,296.235596 431.477753,307.887787 
	C433.117065,319.177795 435.237549,330.397125 436.973083,341.674225 
	C438.736847,353.134369 440.987183,364.581116 441.746460,376.117889 
	C442.589294,388.923859 442.026550,401.825073 442.001434,414.684631 
	C441.979523,425.907532 439.635529,436.741760 435.984772,447.282837 
	C426.816467,473.755127 408.853699,491.713165 382.941589,502.089813 
	C369.533020,507.459351 355.718689,510.887787 341.181702,512.620117 
	C330.645782,513.000000 320.291534,513.000000 309.468658,513.000000 
	C308.562531,512.657654 308.125061,512.315308 307.665771,511.648224 
	C319.785797,508.167999 332.235291,505.868896 343.993652,501.645660 
	C359.560272,496.054688 372.490417,486.088715 382.915466,473.137665 
	C398.316040,454.005585 403.146881,431.231689 403.744507,407.589539 
	C404.110626,393.106140 402.710175,378.474976 400.887726,364.063843 
	C398.218414,342.955963 394.370789,321.999146 391.225128,300.948120 
	C390.389557,295.356506 390.284210,289.655762 390.160431,284.160095 
	C392.570557,285.863861 394.564850,288.464203 396.784302,288.673126 
	C399.120026,288.892975 402.571320,287.478790 403.925018,285.611389 
	C406.169708,282.514923 405.884308,278.417053 402.837799,275.597687 
	C397.734131,270.874573 392.308624,266.499207 387.017700,261.524994 
	C387.018524,248.546112 387.647919,235.981430 386.886719,223.501572 
	C385.457275,200.066620 376.609528,179.329041 362.360840,160.848328 
	C373.824677,158.799911 384.932220,156.913147 396.039764,155.026382 
z"/>
<path fill="#EF3A47" opacity="1.000000" stroke="none" 
	d="
M389.843567,284.005127 
	C390.284210,289.655762 390.389557,295.356506 391.225128,300.948120 
	C394.370789,321.999146 398.218414,342.955963 400.887726,364.063843 
	C402.710175,378.474976 404.110626,393.106140 403.744507,407.589539 
	C403.146881,431.231689 398.316040,454.005585 382.915466,473.137665 
	C372.490417,486.088715 359.560272,496.054688 343.993652,501.645660 
	C332.235291,505.868896 319.785797,508.167999 307.358704,511.575378 
	C296.149078,509.445312 285.016235,507.755646 274.341980,504.542542 
	C249.270386,496.995636 227.022614,483.689301 206.054047,468.369324 
	C189.072922,455.962708 173.664734,441.583405 159.625351,425.955536 
	C139.122833,403.133240 121.969330,377.929840 109.018242,350.013367 
	C101.260803,333.292053 94.886765,315.939789 92.324722,297.736511 
	C90.261948,283.080597 89.438744,268.001678 90.303352,253.241531 
	C91.545647,232.033661 96.933479,211.509933 106.653595,192.492188 
	C107.467491,202.473633 111.200920,210.102112 120.307045,214.731934 
	C125.884285,217.567581 131.459641,216.655258 137.146545,215.853195 
	C144.197540,223.896774 152.560181,229.772980 164.127121,231.829987 
	C185.690277,232.656784 200.917740,219.400345 204.777664,202.272079 
	C207.127167,191.846252 209.577682,181.443176 212.381531,171.068451 
	C215.195465,171.412827 217.610718,171.718643 220.187973,172.270874 
	C220.904587,172.677505 221.459183,172.837738 222.005981,172.999481 
	C221.998169,173.000992 222.001846,172.985275 222.029541,173.338791 
	C230.767197,185.751358 235.780991,199.225479 238.019699,213.904022 
	C239.893005,226.186966 245.671265,232.100433 257.768188,234.285645 
	C261.065338,234.881256 264.609192,234.111191 268.338379,234.123596 
	C269.567352,235.225891 270.633728,236.073471 271.406677,237.134766 
	C277.427765,245.402451 295.304596,253.391571 308.463196,248.030243 
	C311.887421,246.854462 315.103485,246.021790 317.923309,244.469315 
	C331.068176,237.232300 338.226135,222.272461 336.150970,207.438858 
	C335.671906,204.014481 336.030914,200.472870 336.270477,197.183960 
	C339.908691,201.911194 343.583740,206.247589 346.598083,211.002777 
	C357.253632,227.812088 359.184753,225.914932 345.402710,244.268280 
	C341.239532,249.812378 335.716095,254.318146 331.255524,259.666321 
	C329.949249,261.232574 329.063995,264.719482 329.928741,266.158813 
	C331.224518,268.315704 334.066132,270.358826 336.553345,270.821503 
	C342.382996,271.906006 345.289154,266.849213 348.577362,263.366211 
	C353.844269,257.787262 358.653870,251.776596 363.870270,245.699722 
	C365.290649,250.562302 367.341003,255.076843 367.836548,259.756042 
	C369.224701,272.863464 370.074158,286.032227 370.919800,299.190704 
	C371.264069,304.546906 373.747406,308.458221 377.733978,308.811737 
	C381.564240,309.151337 385.549988,304.989258 385.907898,299.799438 
	C386.193390,295.660187 385.992126,291.487274 386.003113,287.329285 
	C386.008148,285.434601 386.003998,283.539886 386.003998,280.705170 
	C387.878815,282.316498 388.861206,283.160797 389.843567,284.005127 
M244.335281,410.163666 
	C246.634659,411.808716 248.803101,413.690033 251.259735,415.051270 
	C256.988251,418.225525 261.833557,415.076569 262.111633,408.614807 
	C262.301422,404.205475 259.072113,402.661224 256.554016,400.398865 
	C245.071793,390.082642 233.419952,379.947876 222.167023,369.387817 
	C218.290970,365.750397 215.395905,361.067627 211.368011,356.001160 
	C217.086914,356.001160 221.415359,356.299988 225.682861,355.917999 
	C230.043228,355.527710 234.980682,355.491455 236.782516,350.155762 
	C238.665268,344.580444 234.886276,340.262207 227.924194,340.125793 
	C220.265076,339.975739 212.596725,340.221313 204.941849,339.986359 
	C203.260544,339.934753 200.789093,339.040344 200.086136,337.761749 
	C192.000961,323.056091 185.247528,307.775360 182.046844,291.182526 
	C180.769867,284.562561 179.948914,277.852051 179.010666,271.170044 
	C178.214767,265.501770 175.523727,262.701019 170.938431,262.985382 
	C166.494324,263.261047 163.385529,266.630859 164.144226,272.041687 
	C165.624817,282.601135 167.867371,293.053040 169.761093,303.555481 
	C170.590958,308.157898 172.581223,312.970978 171.890732,317.348663 
	C169.842987,330.331116 166.514160,343.106964 164.189621,356.053955 
	C163.686646,358.855469 164.521759,362.598572 166.177750,364.851593 
	C167.376755,366.482880 171.031052,367.126404 173.448364,366.870148 
	C178.056656,366.381653 178.392014,362.076691 179.042374,358.554199 
	C180.220245,352.174683 181.144043,345.748199 182.316422,338.454926 
	C183.479599,339.675568 184.009460,340.039703 184.279785,340.543182 
	C192.501251,355.854828 202.230423,370.084320 213.859955,383.053711 
	C215.454269,384.831665 215.745163,388.186768 215.827774,390.836975 
	C216.099747,399.562683 215.702042,408.314880 216.139832,417.027863 
	C216.457672,423.353821 223.611786,426.500671 228.386459,422.758575 
	C232.209030,419.762787 231.060074,415.613190 230.735062,411.667999 
	C230.423126,407.881409 230.190918,404.088226 229.821869,398.854309 
	C235.401962,403.249023 239.561142,406.524658 244.335281,410.163666 
z"/>
<path fill="#F77474" opacity="1.000000" stroke="none" 
	d="
M113.050293,168.806015 
	C92.915001,171.545868 77.435890,158.463409 72.696358,142.350037 
	C65.665428,118.446434 83.349861,93.933739 108.332184,93.946785 
	C118.258102,93.951965 128.184341,93.360321 138.519547,93.449936 
	C132.949417,106.758835 125.988037,119.312424 121.288300,132.662201 
	C117.211777,144.241730 115.697182,156.723190 113.050293,168.806015 
z"/>
<path fill="#E55555" opacity="1.000000" stroke="none" 
	d="
M113.474808,168.875885 
	C115.697182,156.723190 117.211777,144.241730 121.288300,132.662201 
	C125.988037,119.312424 132.949417,106.758835 138.985825,93.522430 
	C148.351990,93.125229 157.660965,93.065094 167.427246,92.967117 
	C152.326828,116.010788 141.938568,141.343613 134.563004,168.607788 
	C129.328217,169.005905 124.625626,169.016479 119.923035,169.027069 
	C117.915131,168.999954 115.907219,168.972855 113.474808,168.875885 
z"/>
<path fill="#CE3043" opacity="1.000000" stroke="none" 
	d="
M119.849937,169.367035 
	C124.625626,169.016479 129.328217,169.005905 134.492310,168.987122 
	C133.635834,176.462067 131.993790,183.906158 131.085663,191.438705 
	C130.056519,199.975006 132.679504,207.835861 137.064713,215.509918 
	C131.459641,216.655258 125.884285,217.567581 120.307045,214.731934 
	C111.200920,210.102112 107.467491,202.473633 106.973099,192.317596 
	C111.230408,184.493866 115.503624,177.100433 119.849937,169.367035 
z"/>
<path fill="#F77474" opacity="1.000000" stroke="none" 
	d="
M308.072479,248.041748 
	C295.304596,253.391571 277.427765,245.402451 271.406677,237.134766 
	C270.633728,236.073471 269.567352,235.225891 268.283417,233.773285 
	C265.609100,226.258774 262.598267,219.393692 261.105865,212.213028 
	C257.601318,195.351212 251.225342,180.895905 233.898224,173.723206 
	C234.514191,171.796555 234.928482,170.168427 235.689346,168.722687 
	C246.796326,147.618011 259.672089,127.882607 279.362366,113.115349 
	C286.797272,109.328072 293.880493,105.621689 300.963715,101.915306 
	C317.086700,96.688011 333.209656,91.460716 349.691528,86.091904 
	C365.582245,82.669594 381.149017,78.750000 397.121094,82.093651 
	C411.287445,85.059280 423.560638,100.223892 423.460724,114.618347 
	C405.647308,117.674812 388.238922,119.836372 371.035553,123.083946 
	C347.403992,127.544998 324.963470,135.817139 303.572266,146.784439 
	C294.067627,151.657455 289.543823,161.621765 291.813538,171.795639 
	C294.951416,185.860809 298.403809,199.857025 301.434021,213.944626 
	C303.868500,225.262665 305.875702,236.672592 308.072479,248.041748 
z"/>
<path fill="#E55555" opacity="1.000000" stroke="none" 
	d="
M308.463196,248.030243 
	C305.875702,236.672592 303.868500,225.262665 301.434021,213.944626 
	C298.403809,199.857025 294.951416,185.860809 291.813538,171.795639 
	C289.543823,161.621765 294.067627,151.657455 303.572266,146.784439 
	C324.963470,135.817139 347.403992,127.544998 371.035553,123.083946 
	C388.238922,119.836372 405.647308,117.674812 423.389923,115.036972 
	C426.399353,133.193130 414.031982,150.024368 396.414429,154.989487 
	C384.932220,156.913147 373.824677,158.799911 361.961731,160.851715 
	C351.501617,164.289032 341.796936,167.561325 331.702576,170.867615 
	C330.259308,171.872375 328.133301,173.169495 328.314362,173.764450 
	C330.687653,181.562546 333.386841,189.261429 336.004272,196.985199 
	C336.030914,200.472870 335.671906,204.014481 336.150970,207.438858 
	C338.226135,222.272461 331.068176,237.232300 317.923309,244.469315 
	C315.103485,246.021790 311.887421,246.854462 308.463196,248.030243 
z"/>
<path fill="#7B232E" opacity="1.000000" stroke="none" 
	d="
M300.809540,101.617828 
	C293.880493,105.621689 286.797272,109.328072 279.076355,112.904495 
	C272.894379,110.191910 267.561768,106.170013 261.763031,105.317253 
	C248.460175,103.360931 236.585678,107.768585 226.545731,116.908684 
	C213.619202,128.676636 206.353821,143.900391 200.075500,159.757629 
	C198.412750,163.957230 199.954498,168.317886 204.187668,169.824112 
	C206.620987,170.689957 209.373810,170.657791 211.982819,171.029877 
	C209.577682,181.443176 207.127167,191.846252 204.777664,202.272079 
	C200.917740,219.400345 185.690277,232.656784 164.489532,231.926575 
	C166.365631,216.885605 168.052139,201.753738 171.155487,186.918228 
	C176.226410,162.676895 185.052109,139.795364 199.734436,119.584549 
	C210.775696,104.385788 224.537933,92.600739 243.788086,89.696312 
	C264.017181,86.644196 283.294495,89.650139 300.809540,101.617828 
z"/>
<path fill="#F2C85A" opacity="1.000000" stroke="none" 
	d="
M336.270447,197.183960 
	C333.386841,189.261429 330.687653,181.562546 328.314362,173.764450 
	C328.133301,173.169495 330.259308,171.872375 331.961670,171.079086 
	C357.149323,194.870193 374.987061,222.370560 382.299103,256.115692 
	C382.774048,258.307587 385.395569,260.034363 387.018585,261.977478 
	C392.308624,266.499207 397.734131,270.874573 402.837799,275.597687 
	C405.884308,278.417053 406.169708,282.514923 403.925018,285.611389 
	C402.571320,287.478790 399.120026,288.892975 396.784302,288.673126 
	C394.564850,288.464203 392.570557,285.863861 390.160400,284.160095 
	C388.861206,283.160797 387.878815,282.316498 386.003998,280.705170 
	C386.003998,283.539886 386.008148,285.434601 386.003113,287.329285 
	C385.992126,291.487274 386.193390,295.660187 385.907898,299.799438 
	C385.549988,304.989258 381.564240,309.151337 377.733978,308.811737 
	C373.747406,308.458221 371.264069,304.546906 370.919800,299.190704 
	C370.074158,286.032227 369.224701,272.863464 367.836548,259.756042 
	C367.341003,255.076843 365.290649,250.562302 363.870270,245.699722 
	C358.653870,251.776596 353.844269,257.787262 348.577362,263.366211 
	C345.289154,266.849213 342.382996,271.906006 336.553345,270.821503 
	C334.066132,270.358826 331.224518,268.315704 329.928741,266.158813 
	C329.063995,264.719482 329.949249,261.232574 331.255524,259.666321 
	C335.716095,254.318146 341.239532,249.812378 345.402710,244.268280 
	C359.184753,225.914932 357.253632,227.812088 346.598083,211.002777 
	C343.583740,206.247589 339.908691,201.911194 336.270447,197.183960 
z"/>
<path fill="#EF3B47" opacity="1.000000" stroke="none" 
	d="
M387.017700,261.524994 
	C385.395569,260.034363 382.774048,258.307587 382.299103,256.115692 
	C374.987061,222.370560 357.149323,194.870193 332.351318,171.045074 
	C341.796936,167.561325 351.501617,164.289032 361.605469,161.013382 
	C376.609528,179.329041 385.457275,200.066620 386.886719,223.501572 
	C387.647919,235.981430 387.018524,248.546112 387.017700,261.524994 
z"/>
<path fill="#F2C95A" opacity="1.000000" stroke="none" 
	d="
M244.027802,409.981995 
	C239.561142,406.524658 235.401962,403.249023 229.821869,398.854309 
	C230.190918,404.088226 230.423126,407.881409 230.735062,411.667999 
	C231.060074,415.613190 232.209030,419.762787 228.386459,422.758575 
	C223.611786,426.500671 216.457672,423.353821 216.139832,417.027863 
	C215.702042,408.314880 216.099747,399.562683 215.827774,390.836975 
	C215.745163,388.186768 215.454269,384.831665 213.859955,383.053711 
	C202.230423,370.084320 192.501251,355.854828 184.279785,340.543182 
	C184.009460,340.039703 183.479599,339.675568 182.316422,338.454926 
	C181.144043,345.748199 180.220245,352.174683 179.042374,358.554199 
	C178.392014,362.076691 178.056656,366.381653 173.448364,366.870148 
	C171.031052,367.126404 167.376755,366.482880 166.177750,364.851593 
	C164.521759,362.598572 163.686646,358.855469 164.189621,356.053955 
	C166.514160,343.106964 169.842987,330.331116 171.890732,317.348663 
	C172.581223,312.970978 170.590958,308.157898 169.761093,303.555481 
	C167.867371,293.053040 165.624817,282.601135 164.144226,272.041687 
	C163.385529,266.630859 166.494324,263.261047 170.938431,262.985382 
	C175.523727,262.701019 178.214767,265.501770 179.010666,271.170044 
	C179.948914,277.852051 180.769867,284.562561 182.046844,291.182526 
	C185.247528,307.775360 192.000961,323.056091 200.086136,337.761749 
	C200.789093,339.040344 203.260544,339.934753 204.941849,339.986359 
	C212.596725,340.221313 220.265076,339.975739 227.924194,340.125793 
	C234.886276,340.262207 238.665268,344.580444 236.782516,350.155762 
	C234.980682,355.491455 230.043228,355.527710 225.682861,355.917999 
	C221.415359,356.299988 217.086914,356.001160 211.368011,356.001160 
	C215.395905,361.067627 218.290970,365.750397 222.167023,369.387817 
	C233.419952,379.947876 245.071793,390.082642 256.554016,400.398865 
	C259.072113,402.661224 262.301422,404.205475 262.111633,408.614807 
	C261.833557,415.076569 256.988251,418.225525 251.259735,415.051270 
	C248.803101,413.690033 246.634659,411.808716 244.027802,409.981995 
z"/>
<path fill="#E55555" opacity="1.000000" stroke="none" 
	d="
M212.381516,171.068436 
	C209.373810,170.657791 206.620987,170.689957 204.187668,169.824112 
	C199.954498,168.317886 198.412750,163.957230 200.075500,159.757629 
	C206.353821,143.900391 213.619202,128.676636 226.545731,116.908684 
	C236.585678,107.768585 248.460175,103.360931 261.763031,105.317253 
	C267.561768,106.170013 272.894379,110.191910 278.724670,112.985397 
	C259.672089,127.882607 246.796326,147.618011 235.689346,168.722687 
	C234.928482,170.168427 234.514191,171.796555 233.479706,173.697205 
	C229.347733,173.698120 225.674789,173.341705 222.001846,172.985275 
	C222.001846,172.985275 221.998169,173.000992 221.844177,172.751495 
	C221.135437,172.342819 220.580704,172.183640 220.025970,172.024460 
	C217.610718,171.718643 215.195465,171.412827 212.381516,171.068436 
z"/>
<path fill="#CE3043" opacity="1.000000" stroke="none" 
	d="
M222.029541,173.338791 
	C225.674789,173.341705 229.347733,173.698120 233.439209,174.080536 
	C251.225342,180.895905 257.601318,195.351212 261.105865,212.213028 
	C262.598267,219.393692 265.609100,226.258774 267.984863,233.617569 
	C264.609192,234.111191 261.065338,234.881256 257.768188,234.285645 
	C245.671265,232.100433 239.893005,226.186966 238.019699,213.904022 
	C235.780991,199.225479 230.767197,185.751358 222.029541,173.338791 
z"/>
<path fill="#CE3043" opacity="1.000000" stroke="none" 
	d="
M220.187973,172.270874 
	C220.580704,172.183640 221.135437,172.342819 221.851990,172.750000 
	C221.459183,172.837738 220.904587,172.677505 220.187973,172.270874 
z"/>
</svg>