<svg version="1.1" id="Layer_1" xmlns="http://www.w3.org/2000/svg" xmlns:xlink="http://www.w3.org/1999/xlink" x="0px" y="0px"
	 width="100%" viewBox="0 0 512 512" enable-background="new 0 0 512 512" xml:space="preserve">
<path fill="#000000" opacity="1.000000" stroke="none" 
	d="
M287.000000,513.000000 
	C191.356552,513.000000 96.213104,513.000000 1.034826,513.000000 
	C1.034826,342.398193 1.034826,171.796371 1.034826,1.097280 
	C171.560135,1.097280 342.120331,1.097280 512.840271,1.097280 
	C512.840271,171.666550 512.840271,342.333252 512.840271,513.000000 
	C437.796356,513.000000 362.648163,513.000000 287.000000,513.000000 
M345.767059,504.990936 
	C349.197601,505.327057 352.622375,505.865814 356.059723,505.964325 
	C371.234192,506.399384 385.997406,504.363037 400.713928,500.262878 
	C427.757599,492.728302 449.855408,477.867371 466.453003,455.718048 
	C483.532318,432.925903 490.811096,406.190735 491.814636,377.976196 
	C492.252747,365.658173 491.514893,353.148499 489.783173,340.942657 
	C487.806396,327.009399 484.910339,313.088531 480.959412,299.587891 
	C477.303772,287.096283 471.727234,275.166809 467.195190,263.500977 
	C471.354980,258.802429 476.231903,254.300003 479.899994,248.966232 
	C491.978210,231.403427 493.010925,211.866440 489.271881,191.574310 
	C485.721863,172.308090 477.879791,154.833008 467.869873,138.166550 
	C466.341766,138.849594 465.051666,139.426270 463.271057,140.222198 
	C461.535156,134.864746 459.909851,129.663971 458.167450,124.502701 
	C450.447357,101.634445 443.114105,78.623276 434.803162,55.971169 
	C429.331879,41.058804 421.841919,27.032677 408.629547,17.179113 
	C397.270386,8.707664 384.803741,5.292568 370.945526,10.103489 
	C367.668091,11.241273 364.742767,12.748410 361.334473,10.286551 
	C360.334351,9.564142 358.365967,9.804067 356.947845,10.104934 
	C351.243652,11.315126 345.565826,12.660506 339.907410,14.072760 
	C333.726227,15.615497 331.757904,20.643873 335.463989,25.948133 
	C339.939545,32.353714 344.481140,38.745251 349.493469,44.724251 
	C351.008392,46.531307 354.101959,47.247437 356.617279,47.927067 
	C360.106812,48.869911 361.463654,46.048981 362.906189,43.625427 
	C366.480377,37.620491 373.980591,34.126656 374.198822,25.896757 
	C374.215668,25.260151 375.933838,24.146406 376.862671,24.144966 
	C381.317719,24.138054 386.078979,23.486271 390.173065,24.801565 
	C404.076904,29.268423 411.571472,40.749096 416.743713,53.152557 
	C423.777527,70.020294 429.402344,87.486298 435.355896,104.790527 
	C440.392487,119.429611 445.037262,134.203522 449.779633,148.686356 
	C446.190216,151.036362 443.084229,153.069839 439.921906,155.140213 
	C441.136780,157.235138 442.116028,158.910889 443.083252,160.593582 
	C451.524750,175.279678 457.725342,190.904419 458.796295,207.835953 
	C459.723206,222.489960 453.642700,234.292068 439.846344,240.991241 
	C428.615448,246.444656 417.641693,246.704483 406.366180,240.182892 
	C393.942535,232.997223 384.608765,222.970291 376.749695,211.307053 
	C373.144562,205.956879 369.819519,200.417984 366.326233,194.899506 
	C363.555511,196.236328 360.970734,197.483429 358.278015,198.782593 
	C357.181793,197.619049 355.995636,196.648483 355.164490,195.434814 
	C341.665588,175.723206 328.092987,156.060394 314.786621,136.219177 
	C304.847992,121.399628 294.126984,106.820679 290.516541,88.862083 
	C288.470367,78.684380 289.649872,68.737831 298.295380,61.340786 
	C299.341980,60.445312 301.275635,60.103752 302.716858,60.259224 
	C305.229156,60.530224 307.676056,61.884487 310.154175,61.895065 
	C315.084290,61.916115 320.045471,60.837288 324.941833,61.118538 
	C331.920746,61.519405 334.219147,57.521969 332.847046,51.381420 
	C331.017029,43.191757 328.489319,35.140011 325.907745,27.143147 
	C324.407684,22.496376 319.518768,21.201305 315.380127,23.951056 
	C313.356293,25.295738 311.296234,26.627375 309.462921,28.208796 
	C305.669922,31.480633 300.914307,34.304001 298.613953,38.453468 
	C296.252258,42.713612 293.633423,45.736923 289.612305,48.305847 
	C286.638153,50.205914 284.166626,53.168713 282.042664,56.075630 
	C273.053864,68.377861 273.720428,82.167053 276.588165,96.095467 
	C279.528992,110.378487 287.109131,122.567131 295.038269,134.448212 
	C310.286194,157.295822 325.745270,180.004807 341.371552,202.595078 
	C343.663696,205.908707 343.024628,206.985123 339.764709,208.089081 
	C339.065460,208.325882 338.551636,209.110138 338.000549,209.599472 
	C344.517822,224.323959 353.990997,239.203949 371.531982,255.047882 
	C392.570221,274.050690 416.308105,282.858795 445.781830,274.178314 
	C450.708496,287.468262 456.675049,300.529846 460.310516,314.210907 
	C464.056213,328.306671 466.365570,342.926117 467.755066,357.464417 
	C469.037384,370.881378 467.873230,384.412567 465.093506,397.787506 
	C460.132233,421.659302 450.021515,442.306488 430.647400,457.929169 
	C411.097534,473.693542 388.522888,480.913147 363.853027,481.865540 
	C352.400208,482.307709 341.216003,479.723785 330.282745,476.040009 
	C313.666626,470.441498 299.498810,460.972229 286.000702,449.478882 
	C294.361298,447.729919 302.444214,446.756104 310.048370,444.300049 
	C326.212433,439.079224 342.372040,433.684937 358.081055,427.256256 
	C376.521118,419.709900 392.516571,408.197449 403.677002,391.441315 
	C415.632843,373.490845 418.877441,353.591705 414.047180,332.379822 
	C407.458435,303.445740 386.535522,287.938324 359.433807,285.118439 
	C345.943085,283.714752 332.792480,286.301788 319.943024,291.860840 
	C314.333588,279.972839 307.223175,269.410522 296.807190,261.211517 
	C282.289215,249.783646 265.862000,245.382843 247.879944,248.213104 
	C230.654572,250.924240 217.553543,260.772980 208.038849,275.150726 
	C195.261078,294.459320 193.135223,316.027222 196.221024,338.281494 
	C199.291946,360.428436 208.076462,380.726074 218.243759,400.398468 
	C222.678299,408.978729 228.007263,417.096710 232.980835,425.510590 
	C210.260117,428.699829 140.971481,401.484039 127.546951,384.340424 
	C129.491547,381.907166 131.410263,379.506256 133.806732,376.507599 
	C131.369141,374.362091 129.266891,372.478394 127.128799,370.636322 
	C121.658035,365.923157 115.974174,361.327454 120.941376,352.917664 
	C121.384590,352.167206 120.861641,350.909027 121.090286,349.959595 
	C125.135490,333.161865 115.777222,311.657104 100.761864,301.936188 
	C86.078308,292.430084 70.490997,291.143372 54.349621,297.077515 
	C36.019142,303.816437 23.720974,320.610962 22.134798,339.662476 
	C20.745399,356.350494 26.345240,370.568359 39.264603,381.902222 
	C51.433071,392.577393 65.618462,394.032043 80.759392,392.785370 
	C82.688248,392.626526 85.198189,393.120300 86.614571,394.300812 
	C91.558372,398.421204 96.047653,403.083862 100.937241,407.274963 
	C101.926659,408.123016 104.312828,408.505005 105.355263,407.898651 
	C107.965996,406.380188 110.175400,404.171722 112.563843,402.225311 
	C113.556198,402.983765 115.505302,404.476776 117.457787,405.965302 
	C135.281799,419.553650 154.776840,430.135345 175.732132,437.993317 
	C199.853317,447.038513 224.816956,451.426849 250.606461,451.054352 
	C251.956741,451.034821 253.686020,451.404449 254.616608,452.265442 
	C262.079254,459.170013 269.182220,466.474060 276.797363,473.200653 
	C289.877625,484.754578 304.905334,493.209137 321.360901,498.873352 
	C328.988129,501.498779 337.019440,502.950256 345.767059,504.990936 
z"/>
<path fill="#64A8DF" opacity="1.000000" stroke="none" 
	d="
M345.317322,504.962463 
	C337.019440,502.950256 328.988129,501.498779 321.360901,498.873352 
	C304.905334,493.209137 289.877625,484.754578 276.797363,473.200653 
	C269.182220,466.474060 262.079254,459.170013 254.616608,452.265442 
	C253.686020,451.404449 251.956741,451.034821 250.606461,451.054352 
	C224.816956,451.426849 199.853317,447.038513 175.732132,437.993317 
	C154.776840,430.135345 135.281799,419.553650 117.457787,405.965302 
	C115.505302,404.476776 113.556198,402.983765 112.563843,402.225311 
	C110.175400,404.171722 107.965996,406.380188 105.355263,407.898651 
	C104.312828,408.505005 101.926659,408.123016 100.937241,407.274963 
	C96.047653,403.083862 91.558372,398.421204 86.614571,394.300812 
	C85.198189,393.120300 82.688248,392.626526 80.759392,392.785370 
	C65.618462,394.032043 51.433071,392.577393 39.264603,381.902222 
	C26.345240,370.568359 20.745399,356.350494 22.134798,339.662476 
	C23.720974,320.610962 36.019142,303.816437 54.349621,297.077515 
	C70.490997,291.143372 86.078308,292.430084 100.761864,301.936188 
	C115.777222,311.657104 125.135490,333.161865 121.090286,349.959595 
	C120.861641,350.909027 121.384590,352.167206 120.941376,352.917664 
	C115.974174,361.327454 121.658035,365.923157 127.128799,370.636322 
	C129.266891,372.478394 131.369141,374.362091 133.806732,376.507599 
	C131.410263,379.506256 129.491547,381.907166 127.546951,384.340424 
	C140.971481,401.484039 210.260117,428.699829 232.980835,425.510590 
	C228.007263,417.096710 222.678299,408.978729 218.243759,400.398468 
	C208.076462,380.726074 199.291946,360.428436 196.221024,338.281494 
	C193.135223,316.027222 195.261078,294.459320 208.038849,275.150726 
	C217.553543,260.772980 230.654572,250.924240 247.879944,248.213104 
	C265.862000,245.382843 282.289215,249.783646 296.807190,261.211517 
	C307.223175,269.410522 314.333588,279.972839 319.943024,291.860840 
	C332.792480,286.301788 345.943085,283.714752 359.433807,285.118439 
	C386.535522,287.938324 407.458435,303.445740 414.047180,332.379822 
	C418.877441,353.591705 415.632843,373.490845 403.677002,391.441315 
	C392.516571,408.197449 376.521118,419.709900 358.081055,427.256256 
	C342.372040,433.684937 326.212433,439.079224 310.048370,444.300049 
	C302.444214,446.756104 294.361298,447.729919 286.000702,449.478882 
	C299.498810,460.972229 313.666626,470.441498 330.282745,476.040009 
	C341.216003,479.723785 352.400208,482.307709 363.853027,481.865540 
	C388.522888,480.913147 411.097534,473.693542 430.647400,457.929169 
	C450.021515,442.306488 460.132233,421.659302 465.093506,397.787506 
	C467.873230,384.412567 469.037384,370.881378 467.755066,357.464417 
	C466.365570,342.926117 464.056213,328.306671 460.310516,314.210907 
	C456.675049,300.529846 450.708496,287.468262 445.781830,274.178314 
	C416.308105,282.858795 392.570221,274.050690 371.531982,255.047882 
	C353.990997,239.203949 344.517822,224.323959 338.000549,209.599472 
	C338.551636,209.110138 339.065460,208.325882 339.764709,208.089081 
	C343.024628,206.985123 343.663696,205.908707 341.371552,202.595078 
	C325.745270,180.004807 310.286194,157.295822 295.038269,134.448212 
	C287.109131,122.567131 279.528992,110.378487 276.588165,96.095467 
	C273.720428,82.167053 273.053864,68.377861 282.042664,56.075630 
	C284.166626,53.168713 286.638153,50.205914 289.612305,48.305847 
	C293.633423,45.736923 296.252258,42.713612 298.613953,38.453468 
	C300.914307,34.304001 305.669922,31.480633 309.462921,28.208796 
	C311.296234,26.627375 313.356293,25.295738 315.380127,23.951056 
	C319.518768,21.201305 324.407684,22.496376 325.907745,27.143147 
	C328.489319,35.140011 331.017029,43.191757 332.847046,51.381420 
	C334.219147,57.521969 331.920746,61.519405 324.941833,61.118538 
	C320.045471,60.837288 315.084290,61.916115 310.154175,61.895065 
	C307.676056,61.884487 305.229156,60.530224 302.716858,60.259224 
	C301.275635,60.103752 299.341980,60.445312 298.295380,61.340786 
	C289.649872,68.737831 288.470367,78.684380 290.516541,88.862083 
	C294.126984,106.820679 304.847992,121.399628 314.786621,136.219177 
	C328.092987,156.060394 341.665588,175.723206 355.164490,195.434814 
	C355.995636,196.648483 357.181793,197.619049 358.278015,198.782593 
	C360.970734,197.483429 363.555511,196.236328 366.326233,194.899506 
	C369.819519,200.417984 373.144562,205.956879 376.749695,211.307053 
	C384.608765,222.970291 393.942535,232.997223 406.366180,240.182892 
	C417.641693,246.704483 428.615448,246.444656 439.846344,240.991241 
	C453.642700,234.292068 459.723206,222.489960 458.796295,207.835953 
	C457.725342,190.904419 451.524750,175.279678 443.083252,160.593582 
	C442.116028,158.910889 441.136780,157.235138 439.921906,155.140213 
	C443.084229,153.069839 446.190216,151.036362 449.779633,148.686356 
	C445.037262,134.203522 440.392487,119.429611 435.355896,104.790527 
	C429.402344,87.486298 423.777527,70.020294 416.743713,53.152557 
	C411.571472,40.749096 404.076904,29.268423 390.173065,24.801565 
	C386.078979,23.486271 381.317719,24.138054 376.862671,24.144966 
	C375.933838,24.146406 374.215668,25.260151 374.198822,25.896757 
	C373.980591,34.126656 366.480377,37.620491 362.906189,43.625427 
	C361.463654,46.048981 360.106812,48.869911 356.617279,47.927067 
	C354.101959,47.247437 351.008392,46.531307 349.493469,44.724251 
	C344.481140,38.745251 339.939545,32.353714 335.463989,25.948133 
	C331.757904,20.643873 333.726227,15.615497 339.907410,14.072760 
	C345.565826,12.660506 351.243652,11.315126 356.947845,10.104934 
	C358.365967,9.804067 360.334351,9.564142 361.334473,10.286551 
	C364.742767,12.748410 367.668091,11.241273 370.945526,10.103489 
	C384.803741,5.292568 397.270386,8.707664 408.629547,17.179113 
	C421.841919,27.032677 429.331879,41.058804 434.803162,55.971169 
	C443.114105,78.623276 450.447357,101.634445 458.167450,124.502701 
	C459.909851,129.663971 461.535156,134.864746 463.271057,140.222198 
	C465.051666,139.426270 466.341766,138.849594 467.869873,138.166550 
	C477.879791,154.833008 485.721863,172.308090 489.271881,191.574310 
	C493.010925,211.866440 491.978210,231.403427 479.899994,248.966232 
	C476.231903,254.300003 471.354980,258.802429 467.195190,263.500977 
	C471.727234,275.166809 477.303772,287.096283 480.959412,299.587891 
	C484.910339,313.088531 487.806396,327.009399 489.783173,340.942657 
	C491.514893,353.148499 492.252747,365.658173 491.814636,377.976196 
	C490.811096,406.190735 483.532318,432.925903 466.453003,455.718048 
	C449.855408,477.867371 427.757599,492.728302 400.713928,500.262878 
	C385.997406,504.363037 371.234192,506.399384 356.059723,505.964325 
	C352.622375,505.865814 349.197601,505.327057 345.317322,504.962463 
M374.519012,314.924011 
	C359.621735,306.261322 344.523254,307.955505 329.472687,314.324005 
	C328.234406,314.847992 327.207184,317.256866 327.115479,318.849426 
	C326.818481,324.008026 327.377869,329.226990 326.930267,334.363708 
	C325.725769,348.186310 316.709259,356.168091 302.848022,354.866119 
	C290.083221,353.667145 281.473663,343.638611 283.804962,329.511810 
	C285.201355,321.050385 289.475586,314.251190 295.830475,308.763153 
	C298.828278,306.174225 298.885315,303.895050 297.203217,300.441376 
	C292.947205,291.703094 287.152191,284.365692 279.238708,278.751831 
	C263.015015,267.242615 244.889435,269.745117 231.890686,283.835052 
	C222.553223,293.956329 219.034042,306.995697 219.272217,320.377686 
	C219.450012,330.366638 221.137726,340.588379 223.863724,350.222412 
	C231.287613,376.459473 244.703918,399.843567 260.541656,421.855255 
	C262.447266,424.503693 264.366058,427.892242 269.010986,427.065826 
	C278.635376,425.353455 288.422821,424.466034 297.967957,422.421143 
	C312.721344,419.260498 326.846741,414.170563 340.788269,408.243622 
	C354.950500,402.222839 368.321686,395.492737 378.698151,383.815552 
	C386.259766,375.306061 391.260620,365.473267 391.876495,354.110992 
	C392.718628,338.573425 389.008942,324.570587 374.519012,314.924011 
M110.847969,333.849213 
	C104.992081,313.904205 89.832352,302.926025 69.618233,303.992004 
	C50.603924,304.994751 34.441792,320.640259 32.207558,340.206879 
	C30.094168,358.715149 42.262711,376.507019 60.515785,381.597015 
	C89.457474,389.667603 115.964600,365.029083 110.847969,333.849213 
z"/>
<path fill="#000000" opacity="1.000000" stroke="none" 
	d="
M374.889587,314.985413 
	C389.008942,324.570587 392.718628,338.573425 391.876495,354.110992 
	C391.260620,365.473267 386.259766,375.306061 378.698151,383.815552 
	C368.321686,395.492737 354.950500,402.222839 340.788269,408.243622 
	C326.846741,414.170563 312.721344,419.260498 297.967957,422.421143 
	C288.422821,424.466034 278.635376,425.353455 269.010986,427.065826 
	C264.366058,427.892242 262.447266,424.503693 260.541656,421.855255 
	C244.703918,399.843567 231.287613,376.459473 223.863724,350.222412 
	C221.137726,340.588379 219.450012,330.366638 219.272217,320.377686 
	C219.034042,306.995697 222.553223,293.956329 231.890686,283.835052 
	C244.889435,269.745117 263.015015,267.242615 279.238708,278.751831 
	C287.152191,284.365692 292.947205,291.703094 297.203217,300.441376 
	C298.885315,303.895050 298.828278,306.174225 295.830475,308.763153 
	C289.475586,314.251190 285.201355,321.050385 283.804962,329.511810 
	C281.473663,343.638611 290.083221,353.667145 302.848022,354.866119 
	C316.709259,356.168091 325.725769,348.186310 326.930267,334.363708 
	C327.377869,329.226990 326.818481,324.008026 327.115479,318.849426 
	C327.207184,317.256866 328.234406,314.847992 329.472687,314.324005 
	C344.523254,307.955505 359.621735,306.261322 374.889587,314.985413 
z"/>
<path fill="#F7FBFD" opacity="1.000000" stroke="none" 
	d="
M110.920540,334.263611 
	C115.964600,365.029083 89.457474,389.667603 60.515785,381.597015 
	C42.262711,376.507019 30.094168,358.715149 32.207558,340.206879 
	C34.441792,320.640259 50.603924,304.994751 69.618233,303.992004 
	C89.832352,302.926025 104.992081,313.904205 110.920540,334.263611 
M40.170425,329.886353 
	C39.857853,330.658203 39.513615,331.418915 39.237373,332.203552 
	C33.553436,348.348511 39.739620,365.377502 54.275860,373.620697 
	C68.995041,381.967682 87.884346,378.207001 98.937378,364.728912 
	C109.593636,351.734711 109.451981,333.289001 98.598434,320.589050 
	C82.504120,301.756744 52.835728,306.155182 40.170425,329.886353 
z"/>
<path fill="#66A9DF" opacity="1.000000" stroke="none" 
	d="
M40.337212,329.544037 
	C52.835728,306.155182 82.504120,301.756744 98.598434,320.589050 
	C109.451981,333.289001 109.593636,351.734711 98.937378,364.728912 
	C87.884346,378.207001 68.995041,381.967682 54.275860,373.620697 
	C39.739620,365.377502 33.553436,348.348511 39.237373,332.203552 
	C39.513615,331.418915 39.857853,330.658203 40.337212,329.544037 
M70.694847,359.048523 
	C81.935799,358.682281 89.584976,350.235168 87.510002,340.479218 
	C85.781456,332.352020 79.173866,327.351532 70.905914,327.913483 
	C63.038208,328.448242 56.560852,334.963226 56.117325,342.787964 
	C55.662464,350.812653 60.943592,357.047333 70.694847,359.048523 
z"/>
<path fill="#FDFEFF" opacity="1.000000" stroke="none" 
	d="
M70.274185,359.026428 
	C60.943592,357.047333 55.662464,350.812653 56.117325,342.787964 
	C56.560852,334.963226 63.038208,328.448242 70.905914,327.913483 
	C79.173866,327.351532 85.781456,332.352020 87.510002,340.479218 
	C89.584976,350.235168 81.935799,358.682281 70.274185,359.026428 
z"/>
</svg>